<?xml version="1.0" encoding="iso-8859-1"?>
<!-- Generator: Adobe Illustrator 19.0.0, SVG Export Plug-In . SVG Version: 6.00 Build 0)  -->
<svg version="1.1" id="Capa_1" xmlns="http://www.w3.org/2000/svg" xmlns:xlink="http://www.w3.org/1999/xlink" x="0px" y="0px"
	 viewBox="0 0 464.002 464.002" style="enable-background:new 0 0 464.002 464.002;" xml:space="preserve">
<path style="fill:#B21D48;" d="M312.001,336.001v-58.344c-0.044-3.498,1.111-6.905,3.272-9.656c1.899-2.467,4.815-3.938,7.928-4
	h49.6c3.104,0.069,6.01,1.54,7.904,4c2.17,2.748,3.333,6.155,3.296,9.656v58.344H312.001z"/>
<path style="fill:#DD1C4B;" d="M372.729,276.001c-1.899-2.467-4.815-3.938-7.928-4h-49.6c-0.758,0.004-1.513,0.1-2.248,0.288
	c-0.611,1.724-0.925,3.539-0.928,5.368v66.344h64v-58.344C376.062,282.156,374.899,278.749,372.729,276.001z"/>
<path style="fill:#B21D48;" d="M80.001,336.001v-58.344c-0.044-3.498,1.111-6.905,3.272-9.656c1.899-2.467,4.815-3.938,7.928-4h49.6
	c3.104,0.069,6.01,1.54,7.904,4c2.17,2.748,3.333,6.155,3.296,9.656v58.344H80.001z"/>
<path style="fill:#DD1C4B;" d="M140.729,276.001c-1.899-2.467-4.815-3.938-7.928-4h-49.6c-0.758,0.004-1.513,0.1-2.248,0.288
	c-0.611,1.724-0.925,3.539-0.928,5.368v66.344h64v-58.344C144.062,282.156,142.899,278.749,140.729,276.001z"/>
<path style="fill:#B21D48;" d="M308.361,268.001c-2.233-2.522-5.432-3.976-8.8-4h-55.2c-3.368,0.024-6.567,1.478-8.8,4
	c-1.213,1.348-2.148,2.922-2.752,4.632c-0.582,1.611-0.883,3.311-0.888,5.024v58.344h80.08v-58.344
	C312.022,274.099,310.726,270.659,308.361,268.001L308.361,268.001z"/>
<path style="fill:#DD1C4B;" d="M300.361,276.001c-2.233-2.522-5.432-3.976-8.8-4h-55.2c-1.202,0.022-2.393,0.235-3.528,0.632
	c-0.582,1.611-0.883,3.311-0.888,5.024v66.344h72v-58.344C303.982,282.107,302.705,278.668,300.361,276.001L300.361,276.001z"/>
<path style="fill:#B21D48;" d="M228.361,268.001c-2.233-2.522-5.432-3.976-8.8-4h-55.2c-3.368,0.024-6.567,1.478-8.8,4
	c-1.213,1.348-2.148,2.922-2.752,4.632c-0.582,1.611-0.883,3.311-0.888,5.024v58.344h80.08v-58.344
	C232.022,274.099,230.726,270.659,228.361,268.001L228.361,268.001z"/>
<path style="fill:#DD1C4B;" d="M220.361,276.001c-2.233-2.522-5.432-3.976-8.8-4h-55.2c-1.202,0.022-2.393,0.235-3.528,0.632
	c-0.582,1.611-0.883,3.311-0.888,5.024v66.344h72v-58.344C223.982,282.107,222.705,278.668,220.361,276.001L220.361,276.001z"/>
<path style="fill:#7FCCCB;" d="M0.001,0.001h464v216h-464V0.001z"/>
<path style="fill:#2BB3CE;" d="M464.001,216.001h-464l195.392-29.104c113.804-16.947,213.16-86.079,268.608-186.896V216.001z"/>
<g>
	<path style="fill:#DD1C4B;" d="M384.001,232.001c4.858-34.073,29.304-62.1,62.4-71.544l1.6-0.456
		c-50.036-25.02-84.426-73.204-91.824-128.656l-4.176-31.344h112v232H384.001z"/>
	<path style="fill:#DD1C4B;" d="M80.001,232.001c-4.858-34.073-29.304-62.1-62.4-71.544l-1.6-0.456
		c50.036-25.02,84.426-73.204,91.824-128.656l4.176-31.344h-112v232H80.001z"/>
</g>
<g>
	<path style="fill:#E3472C;" d="M0.001,0.001v232h40c0.011-25.276-11.469-49.186-31.2-64.984l-8.8-7.016
		c36.084-30.946,59.683-73.957,66.4-121.016l5.6-38.984L0.001,0.001z"/>
	<path style="fill:#E3472C;" d="M464.001,0.001v232h-40c-0.011-25.276,11.469-49.186,31.2-64.984l8.8-7.016
		c-36.084-30.946-59.683-73.957-66.4-121.016l-5.6-38.984L464.001,0.001z"/>
</g>
<path style="fill:#B21D48;" d="M352.001,400.001v-58.344c-0.044-3.498,1.111-6.905,3.272-9.656c1.899-2.467,4.815-3.938,7.928-4
	h49.6c3.104,0.069,6.01,1.54,7.904,4c2.17,2.748,3.333,6.155,3.296,9.656v58.344H352.001z"/>
<path style="fill:#DD1C4B;" d="M412.729,340.001c-1.899-2.467-4.815-3.938-7.928-4h-49.6c-0.758,0.004-1.513,0.1-2.248,0.288
	c-0.611,1.724-0.925,3.539-0.928,5.368v66.344h64v-58.344C416.062,346.156,414.899,342.749,412.729,340.001z"/>
<path style="fill:#B21D48;" d="M40.001,400.001v-58.344c-0.044-3.498,1.111-6.905,3.272-9.656c1.899-2.467,4.815-3.938,7.928-4h49.6
	c3.104,0.069,6.01,1.54,7.904,4c2.17,2.748,3.333,6.155,3.296,9.656v58.344H40.001z"/>
<path style="fill:#DD1C4B;" d="M100.729,340.001c-1.899-2.467-4.815-3.938-7.928-4h-49.6c-0.758,0.004-1.513,0.1-2.248,0.288
	c-0.619,1.723-0.941,3.538-0.952,5.368v66.344h64v-58.344C104.045,346.159,102.89,342.752,100.729,340.001z"/>
<path style="fill:#B21D48;" d="M188.361,332.001c-2.233-2.522-5.432-3.976-8.8-4h-55.2c-3.368,0.024-6.567,1.478-8.8,4
	c-1.213,1.348-2.148,2.922-2.752,4.632c-0.582,1.611-0.883,3.311-0.888,5.024v58.344h80.08v-58.344
	C192.022,338.099,190.726,334.659,188.361,332.001L188.361,332.001z"/>
<path style="fill:#DD1C4B;" d="M180.361,340.001c-2.233-2.522-5.432-3.976-8.8-4h-55.2c-1.202,0.022-2.393,0.235-3.528,0.632
	c-0.582,1.611-0.883,3.311-0.888,5.024v66.344h72v-58.344C183.982,346.107,182.705,342.668,180.361,340.001L180.361,340.001z"/>
<path style="fill:#B21D48;" d="M268.361,332.001c-2.233-2.522-5.432-3.976-8.8-4h-55.2c-3.368,0.024-6.567,1.478-8.8,4
	c-1.213,1.348-2.148,2.922-2.752,4.632c-0.582,1.611-0.883,3.311-0.888,5.024v58.344h80.08v-58.344
	C272.022,338.099,270.726,334.659,268.361,332.001L268.361,332.001z"/>
<path style="fill:#DD1C4B;" d="M260.361,340.001c-2.233-2.522-5.432-3.976-8.8-4h-55.2c-1.202,0.022-2.393,0.235-3.528,0.632
	c-0.582,1.611-0.883,3.311-0.888,5.024v66.344h72v-58.344C263.982,346.107,262.705,342.668,260.361,340.001L260.361,340.001z"/>
<path style="fill:#B21D48;" d="M348.361,332.001c-2.233-2.522-5.432-3.976-8.8-4h-55.2c-3.368,0.024-6.567,1.478-8.8,4
	c-1.213,1.348-2.148,2.922-2.752,4.632c-0.582,1.611-0.883,3.311-0.888,5.024v58.344h80.08v-58.344
	C352.022,338.099,350.726,334.659,348.361,332.001L348.361,332.001z"/>
<path style="fill:#DD1C4B;" d="M340.361,340.001c-2.233-2.522-5.432-3.976-8.8-4h-55.2c-1.202,0.022-2.393,0.235-3.528,0.632
	c-0.582,1.611-0.883,3.311-0.888,5.024v66.344h72v-58.344C343.982,346.107,342.705,342.668,340.361,340.001L340.361,340.001z"/>
<g>
	<path style="fill:#B21D48;" d="M388.361,396.001c-2.233-2.522-5.432-3.976-8.8-4h-55.2c-3.368,0.024-6.567,1.478-8.8,4
		c-1.213,1.348-2.148,2.922-2.752,4.632c-0.582,1.611-0.883,3.311-0.888,5.024v58.344h80.08v-58.344
		C392.022,402.099,390.726,398.659,388.361,396.001L388.361,396.001z"/>
	<path style="fill:#B21D48;" d="M392.001,464.001v-58.344c-0.044-3.498,1.111-6.905,3.272-9.656c1.899-2.467,4.815-3.938,7.928-4
		h49.6c3.104,0.069,6.01,1.54,7.904,4c2.17,2.748,3.333,6.155,3.296,9.656v58.344H392.001z"/>
	<path style="fill:#B21D48;" d="M0.001,464.001v-58.344c-0.044-3.498,1.111-6.905,3.272-9.656c1.899-2.467,4.815-3.938,7.928-4h49.6
		c3.104,0.069,6.01,1.54,7.904,4c2.17,2.748,3.333,6.155,3.296,9.656v58.344H0.001z"/>
	<path style="fill:#B21D48;" d="M308.361,396.001c-2.233-2.522-5.432-3.976-8.8-4h-55.2c-3.368,0.024-6.567,1.478-8.8,4
		c-1.213,1.348-2.148,2.922-2.752,4.632c-0.582,1.611-0.883,3.311-0.888,5.024v58.344h80.08v-58.344
		C312.022,402.099,310.726,398.659,308.361,396.001L308.361,396.001z"/>
	<path style="fill:#B21D48;" d="M228.361,396.001c-2.233-2.522-5.432-3.976-8.8-4h-55.2c-3.368,0.024-6.567,1.478-8.8,4
		c-1.213,1.348-2.148,2.922-2.752,4.632c-0.582,1.611-0.883,3.311-0.888,5.024v58.344h80.08v-58.344
		C232.022,402.099,230.726,398.659,228.361,396.001L228.361,396.001z"/>
	<path style="fill:#B21D48;" d="M148.361,396.001c-2.233-2.522-5.432-3.976-8.8-4h-55.2c-3.368,0.024-6.567,1.478-8.8,4
		c-1.213,1.348-2.148,2.922-2.752,4.632c-0.582,1.611-0.883,3.311-0.888,5.024v58.344h80.08v-58.344
		C152.022,402.099,150.726,398.659,148.361,396.001L148.361,396.001z"/>
</g>
<g>
	<path style="fill:#DD1C4B;" d="M452.729,404.001c-1.899-2.467-4.815-3.938-7.928-4h-49.6c-0.758,0.004-1.513,0.1-2.248,0.288
		c-0.611,1.724-0.925,3.539-0.928,5.368v58.344h64v-50.344C456.062,410.156,454.899,406.749,452.729,404.001z"/>
	<path style="fill:#DD1C4B;" d="M60.729,404.001c-1.899-2.467-4.815-3.938-7.928-4h-49.6c-0.758,0.004-1.513,0.1-2.248,0.288
		c-0.619,1.723-0.941,3.538-0.952,5.368v58.344h64v-50.344C64.045,410.159,62.89,406.752,60.729,404.001z"/>
	<path style="fill:#DD1C4B;" d="M380.361,404.001c-2.233-2.522-5.432-3.976-8.8-4h-55.2c-1.202,0.022-2.393,0.235-3.528,0.632
		c-0.582,1.611-0.883,3.311-0.888,5.024v58.344h72v-50.344C383.982,410.107,382.705,406.668,380.361,404.001L380.361,404.001z"/>
	<path style="fill:#DD1C4B;" d="M300.361,404.001c-2.233-2.522-5.432-3.976-8.8-4h-55.2c-1.202,0.022-2.393,0.235-3.528,0.632
		c-0.582,1.611-0.883,3.311-0.888,5.024v58.344h72v-50.344C303.982,410.107,302.705,406.668,300.361,404.001L300.361,404.001z"/>
	<path style="fill:#DD1C4B;" d="M220.361,404.001c-2.233-2.522-5.432-3.976-8.8-4h-55.2c-1.202,0.022-2.393,0.235-3.528,0.632
		c-0.582,1.611-0.883,3.311-0.888,5.024v58.344h72v-50.344C223.982,410.107,222.705,406.668,220.361,404.001L220.361,404.001z"/>
	<path style="fill:#DD1C4B;" d="M140.361,404.001c-2.233-2.522-5.432-3.976-8.8-4h-55.2c-1.202,0.022-2.393,0.235-3.528,0.632
		c-0.582,1.611-0.883,3.311-0.888,5.024v58.344h72v-50.344C143.982,410.107,142.705,406.668,140.361,404.001L140.361,404.001z"/>
</g>
<g>
</g>
<g>
</g>
<g>
</g>
<g>
</g>
<g>
</g>
<g>
</g>
<g>
</g>
<g>
</g>
<g>
</g>
<g>
</g>
<g>
</g>
<g>
</g>
<g>
</g>
<g>
</g>
<g>
</g>
</svg>
